<svg xmlns="http://www.w3.org/2000/svg" width="100" height="26" viewBox="0 0 100 26" fill="none">
<path d="M16.1267 4.3125L13.4236 7.03231C13.4238 7.03249 13.4238 7.03249 13.4239 7.03267C13.5588 7.15716 13.6874 7.28772 13.8091 7.42524C13.8104 7.42649 13.8114 7.42774 13.8127 7.42898C13.9315 7.56311 14.0435 7.70277 14.1488 7.84813C14.1534 7.85437 14.1582 7.86062 14.1628 7.86686C14.2622 8.00527 14.3548 8.14849 14.4413 8.29635C14.4501 8.31133 14.4595 8.32596 14.4684 8.34112C14.5476 8.4797 14.6201 8.62239 14.6873 8.76847C14.6992 8.79415 14.7125 8.81912 14.724 8.84498C14.7845 8.98161 14.8375 9.12216 14.8867 9.26449C14.8995 9.30105 14.9144 9.33637 14.9263 9.37329C14.9695 9.50741 15.0048 9.64475 15.0379 9.78316C15.0491 9.82971 15.0635 9.87501 15.0734 9.92228C15.1025 10.0598 15.1225 10.2005 15.1411 10.3416C15.1475 10.3903 15.158 10.4376 15.1631 10.4866C15.1829 10.6766 15.1939 10.8694 15.1939 11.0647C15.1939 12.1955 14.8529 13.2458 14.269 14.1182L17.0219 16.8312C18.2675 15.244 19.0167 13.2441 19.0167 11.0647H15.1939H19.0167C19.0167 8.40444 17.9034 6.01067 16.1267 4.3125Z" fill="#469DF8"/>
<path d="M4.31321 11.0645C4.31321 8.04132 6.74902 5.59047 9.75367 5.59047C10.0954 5.59047 10.4287 5.62614 10.7531 5.68679C10.7696 5.69 10.7864 5.69125 10.8029 5.69446C11.1238 5.7576 11.4329 5.85177 11.7309 5.96877C11.7438 5.97395 11.7571 5.97805 11.7701 5.98322C12.0728 6.10504 12.3607 6.25433 12.6339 6.42645C12.638 6.42894 12.642 6.43144 12.6461 6.43394C12.9235 6.6098 13.1831 6.8101 13.4238 7.0318L13.424 7.03198L16.1271 4.31217C14.4659 2.72459 12.2256 1.74414 9.75367 1.74414C4.63779 1.74414 0.490479 5.91705 0.490479 11.0645C0.490479 13.6311 1.52216 15.9546 3.19023 17.6401L3.21718 17.6674L9.7379 24.2558L12.4414 21.5357L11.1803 20.2615L5.92668 14.9535L5.8868 14.9132C4.91467 13.9243 4.31321 12.5654 4.31321 11.0645Z" fill="#1B68FA"/>
<path d="M17.0219 16.832L14.624 14.4689L17.021 16.833L17.0219 16.832Z" fill="#9FDAFF"/>
<path d="M14.6241 14.4612L11.0402 10.9261C10.2953 10.1914 9.09962 10.2028 8.36876 10.9516C7.63683 11.7014 7.64817 12.9064 8.39411 13.6421L11.1378 16.3461L14.1146 19.2796L14.3988 19.5594L16.2429 17.7039L16.3594 17.5867C16.5944 17.346 16.8132 17.0904 17.0214 16.8253L14.6241 14.4612Z" fill="#9FDAFF"/>
<path d="M9.71627 14.184C10.7596 14.184 11.6054 13.333 11.6054 12.2832C11.6054 11.2335 10.7596 10.3824 9.71627 10.3824C8.67294 10.3824 7.82715 11.2335 7.82715 12.2832C7.82715 13.333 8.67294 14.184 9.71627 14.184Z" fill="#1B68FA"/>
<path d="M46.9301 7.40882C45.9542 6.80082 44.8562 6.55762 43.6363 6.55762C42.4164 6.55762 41.3184 6.80082 40.3425 7.40882C39.3665 8.01682 38.6346 8.74643 38.0246 9.71923C37.4146 10.692 37.1707 11.7864 37.1707 13.0024C37.1707 14.2184 37.4146 15.3129 38.0246 16.2857C38.6346 17.2585 39.3665 17.9881 40.3425 18.5961C41.3184 19.2041 42.4164 19.4473 43.7583 19.4473C44.9782 19.4473 46.0762 19.2041 47.0521 18.5961C48.0281 18.1097 48.76 17.2585 49.37 16.2857C49.98 15.3129 50.224 14.2184 50.224 13.0024C50.224 11.7864 49.98 10.692 49.37 9.71923C48.76 8.62483 47.9061 7.89522 46.9301 7.40882ZM45.3442 14.8265C44.8563 15.3129 44.2463 15.5561 43.6363 15.5561C42.9044 15.5561 42.4164 15.3129 41.9284 14.8265C41.4404 14.3401 41.1964 13.732 41.1964 13.0024C41.1964 12.2728 41.4404 11.5432 41.8064 11.0568C42.2944 10.5704 42.7824 10.3272 43.5143 10.3272C44.2463 10.3272 44.7343 10.5704 45.2222 11.0568C45.7102 11.5432 45.8322 12.1512 45.8322 13.0024C45.9542 13.732 45.7102 14.3401 45.3442 14.8265Z" fill="black"/>
<path d="M60.2273 8.13354C59.3734 7.03913 58.2754 6.55273 56.8115 6.55273C55.8355 6.55273 54.8596 6.79593 54.0056 7.40393C53.1517 8.01194 52.5417 8.74154 52.0537 9.71434C51.5658 10.6871 51.3218 11.7816 51.3218 12.9976C51.3218 14.2136 51.5658 15.308 52.0537 16.2808C52.5417 17.2536 53.1517 17.9832 54.0056 18.5912C54.8596 19.0776 55.7135 19.4424 56.8115 19.4424C58.5194 19.4424 59.7393 18.8344 60.4713 17.4968V19.4424H64.3751V0.959106H60.2273V8.13354ZM59.3734 14.9432C58.8854 15.4296 58.2754 15.7944 57.5435 15.7944C56.8115 15.7944 56.2015 15.5512 55.7135 14.9432C55.2256 14.4568 54.9816 13.7272 54.9816 12.876C54.9816 12.0248 55.2256 11.4167 55.7135 10.8087C56.2015 10.3223 56.8115 10.0791 57.5435 10.0791C58.2754 10.0791 58.8854 10.3223 59.3734 10.8087C59.8613 11.2951 60.1053 12.0248 60.1053 12.876C60.1053 13.7272 59.8613 14.4568 59.3734 14.9432Z" fill="black"/>
<path d="M71.085 6.93066H66.8152V19.3339H71.085V6.93066Z" fill="black"/>
<path d="M81.2103 6.55762C80.4784 6.55762 79.7464 6.67922 79.1364 7.04402C78.5265 7.40882 78.0385 7.77362 77.7945 8.38162V6.92242H73.6467V19.3257H77.9165V12.6376C77.9165 11.908 78.0385 11.3 78.4045 10.9352C78.7705 10.5704 79.1364 10.3272 79.7464 10.3272C80.8444 10.3272 81.3323 11.0568 81.3323 12.516V19.4473H85.6021V11.6648C85.6021 9.96243 85.2361 8.74643 84.5042 7.89522C83.5282 6.92242 82.5523 6.55762 81.2103 6.55762Z" fill="black"/>
<path d="M95.7275 6.92242V8.50322C95.3615 7.89522 94.8735 7.40882 94.2636 7.04402C93.6536 6.67922 92.9216 6.55762 92.1897 6.55762C91.0917 6.55762 90.2378 6.80082 89.3838 7.40882C88.5299 8.01682 87.9199 8.74643 87.4319 9.71923C86.9439 10.692 86.7 11.7864 86.7 13.0024C86.7 14.2184 86.9439 15.3129 87.4319 16.2857C87.9199 17.2585 88.5299 17.9881 89.3838 18.4745C90.2378 18.9609 91.0917 19.3257 92.1897 19.3257C93.8976 19.3257 95.1175 18.7177 95.8495 17.3801V18.2313C95.8495 20.4201 94.6295 21.5145 92.3117 21.5145C91.7017 21.5145 91.0917 21.3929 90.3598 21.2713C89.6278 21.1497 89.0178 20.9065 88.5299 20.6633V24.3113C88.7738 24.4329 89.0178 24.5545 89.3838 24.5545C89.8718 24.6761 90.4818 24.7977 91.0917 24.9193C91.7017 25.0409 92.3117 25.0409 92.9216 25.0409C95.2395 25.0409 96.9474 24.4329 98.1673 23.2169C99.3873 22.0009 99.9973 20.2985 99.9973 18.1097V6.92242H95.7275ZM94.3855 14.8265C93.8976 15.3129 93.2876 15.6777 92.5556 15.6777C91.8237 15.6777 91.2137 15.4345 90.7257 14.8265C90.2378 14.34 89.9938 13.6104 89.9938 12.7592C89.9938 11.908 90.2378 11.3 90.7257 10.692C91.2137 10.2056 91.8237 9.96243 92.5556 9.96243C93.2876 9.96243 93.8976 10.2056 94.3855 10.692C94.8735 11.1784 95.1175 11.908 95.1175 12.7592C95.1175 13.6104 94.8735 14.2184 94.3855 14.8265Z" fill="black"/>
<path d="M35.0967 9.35443C34.6087 8.50323 33.8768 7.77362 33.0228 7.28722C32.1689 6.80082 31.0709 6.55762 29.851 6.55762C28.6311 6.55762 27.5331 6.80082 26.5572 7.40882C25.5812 8.01682 24.8493 8.74643 24.3613 9.71923C23.8733 10.692 23.5073 11.7864 23.5073 13.124C23.5073 14.4617 23.7513 15.5561 24.3613 16.5289C24.9712 17.5017 25.8252 18.2313 26.9231 18.7177C28.0211 19.2041 29.363 19.4473 30.8269 19.4473C30.8269 19.4473 33.8768 19.2041 35.2187 17.9881V15.5561V15.0697C35.2187 15.0697 33.3888 16.1641 32.1689 16.2857C31.9249 16.2857 31.6809 16.2857 31.4369 16.2857C30.339 16.2857 29.485 16.1641 28.875 15.7993C28.2651 15.4345 27.8991 14.8265 27.6551 13.9752H35.8287C35.8287 13.732 35.8287 13.4888 35.9507 13.2456C35.9507 13.0024 35.9507 12.7592 35.9507 12.6376C35.8287 11.3 35.5847 10.2056 35.0967 9.35443ZM27.5331 11.6648C27.7771 10.2056 28.5091 9.47603 29.729 9.47603C30.217 9.47603 30.7049 9.59763 31.0709 9.96243C31.4369 10.2056 31.6809 10.692 31.8029 11.1784C31.8029 11.3 31.8029 11.4216 31.8029 11.6648H27.5331Z" fill="black"/>
<path d="M71.085 0.959106H66.8152V5.21513H71.085V0.959106Z" fill="#1B68FA"/>
</svg>